<svg width="90vw" height="auto" viewBox="0 0 1729 702" fill="none" xmlns="http://www.w3.org/2000/svg">
<circle cx="1240" cy="174" r="27.5" stroke="#CCB160"/>
<line x1="1729" y1="694.5" x2="-4.37115e-08" y2="694.5" stroke="black"/>
<path d="M1480.65 460.035L1625.69 459.842L1626.01 694.292L1480.97 694.485L1480.65 460.035Z" fill="#CCB160" stroke="black" stroke-miterlimit="10" stroke-linejoin="round"/>
<path d="M1399 303.584L1411.59 302L1453.94 396.112L1548.63 377.438L1553.34 387.148L1444.03 411.808L1399 303.584Z" fill="#CCB160"/>
<path d="M1511.31 367.217L1556.68 370.729L1566.21 377.263L1558.63 388.435L1543.27 392.019L1522.59 381.641L1511.6 370.702L1511.31 367.217Z" fill="white"/>
<mask id="mask0_1379_7874" style="mask-type:luminance" maskUnits="userSpaceOnUse" x="1511" y="367" width="56" height="26">
<path d="M1566.21 367.217H1511.31V392.018H1566.21V367.217Z" fill="black"/>
<path d="M1511.31 367.217L1556.68 370.729L1566.21 377.263L1558.63 388.435L1543.27 392.019L1522.59 381.641L1511.6 370.702L1511.31 367.217Z" fill="white"/>
</mask>
<g mask="url(#mask0_1379_7874)">
<path d="M1511.31 367.217L1556.68 370.729L1566.21 377.263L1558.63 388.435L1543.27 392.019L1522.59 381.641L1511.6 370.702L1511.31 367.217Z" stroke="black" stroke-width="2.28104" stroke-miterlimit="10" stroke-linejoin="round"/>
</g>
<path d="M1479.57 372.97C1479.57 372.97 1461.09 386.981 1470.98 388.792C1470.98 388.792 1470.38 391.936 1474.78 391.459C1474.78 391.459 1474.12 394.634 1477.97 394.204C1477.97 394.204 1478.4 397.3 1481.56 396.338C1481.56 396.338 1489.75 385.264 1495.52 382.787C1497.53 381.923 1497.11 380.747 1495.62 379.55C1492.48 377.034 1484.61 374.428 1484.61 374.428L1479.57 372.97Z" fill="white"/>
<mask id="mask1_1379_7874" style="mask-type:luminance" maskUnits="userSpaceOnUse" x="1468" y="372" width="29" height="25">
<path d="M1496.88 372.97H1468.07V396.524H1496.88V372.97Z" fill="black"/>
<path d="M1479.57 372.97C1479.57 372.97 1461.09 386.981 1470.98 388.792C1470.98 388.792 1470.38 391.936 1474.78 391.459C1474.78 391.459 1474.12 394.634 1477.97 394.204C1477.97 394.204 1478.4 397.3 1481.56 396.338C1481.56 396.338 1489.75 385.264 1495.52 382.787C1497.53 381.923 1497.11 380.747 1495.62 379.55C1492.48 377.034 1484.61 374.428 1484.61 374.428L1479.57 372.97Z" fill="white"/>
</mask>
<g mask="url(#mask1_1379_7874)">
<path d="M1479.57 372.97C1479.57 372.97 1461.09 386.981 1470.98 388.792C1470.98 388.792 1470.38 391.936 1474.78 391.459C1474.78 391.459 1474.12 394.634 1477.97 394.204C1477.97 394.204 1478.4 397.3 1481.56 396.338C1481.56 396.338 1489.75 385.264 1495.52 382.787C1497.53 381.923 1497.11 380.747 1495.62 379.55C1492.48 377.034 1484.61 374.428 1484.61 374.428L1479.57 372.97Z" stroke="black" stroke-width="2.28104" stroke-miterlimit="10" stroke-linejoin="round"/>
</g>
<path d="M1471.27 388.467C1471.27 388.467 1474.26 381.946 1479.59 378.678Z" fill="white"/>
<path d="M1471.27 388.467C1471.27 388.467 1474.26 381.946 1479.59 378.678" stroke="black" stroke-width="1.14052" stroke-miterlimit="10" stroke-linejoin="round"/>
<path d="M1440.65 431.589L1389.43 531.727L1434.41 555.997L1458.15 511.51" fill="white"/>
<path d="M1440.65 431.589L1389.43 531.727L1434.41 555.997L1458.15 511.51" stroke="black" stroke-width="1.14052" stroke-miterlimit="10" stroke-linejoin="round"/>
<path d="M1555.8 374.236C1555.8 374.236 1551.25 382.208 1548.38 382.491C1539.8 383.334 1490.51 354.835 1482.94 352.032C1474.88 349.053 1453.6 345.729 1440.34 359.285C1440.34 359.285 1438.55 362.127 1441.32 363.17C1441.32 363.17 1440.18 366.919 1443.29 366.847C1443.29 366.847 1442.1 369.442 1445.21 369.856C1445.21 369.856 1444.62 373.467 1447.86 372.696L1457.97 367.231C1457.97 367.231 1466.35 364.24 1477.4 371.935C1490.69 381.191 1508.66 393.207 1514.08 397.406C1519.49 401.604 1519 411.994 1519 411.994L1556.83 412.59L1567.99 408.258L1578.28 399.053L1577.42 387.202L1568.04 379.302L1561.28 373.64L1557.54 372.059L1555.8 374.236Z" fill="white"/>
<mask id="mask2_1379_7874" style="mask-type:luminance" maskUnits="userSpaceOnUse" x="1439" y="349" width="140" height="64">
<path d="M1578.28 349.366H1439.77V412.59H1578.28V349.366Z" fill="black"/>
<path d="M1555.8 374.236C1555.8 374.236 1551.25 382.208 1548.38 382.491C1539.8 383.334 1490.51 354.835 1482.94 352.032C1474.88 349.053 1453.6 345.729 1440.34 359.285C1440.34 359.285 1438.55 362.127 1441.32 363.17C1441.32 363.17 1440.18 366.919 1443.29 366.847C1443.29 366.847 1442.1 369.442 1445.21 369.856C1445.21 369.856 1444.62 373.467 1447.86 372.696L1457.97 367.231C1457.97 367.231 1466.35 364.24 1477.4 371.935C1490.69 381.191 1508.66 393.207 1514.08 397.406C1519.49 401.604 1519 411.994 1519 411.994L1556.83 412.59L1567.99 408.258L1578.28 399.053L1577.42 387.202L1568.04 379.302L1561.28 373.64L1557.54 372.059L1555.8 374.236Z" fill="white"/>
</mask>
<g mask="url(#mask2_1379_7874)">
<path d="M1555.8 374.236C1555.8 374.236 1551.25 382.208 1548.38 382.491C1539.8 383.334 1490.51 354.835 1482.94 352.032C1474.88 349.053 1453.6 345.729 1440.34 359.285C1440.34 359.285 1438.55 362.127 1441.32 363.17C1441.32 363.17 1440.18 366.919 1443.29 366.847C1443.29 366.847 1442.1 369.442 1445.21 369.856C1445.21 369.856 1444.62 373.467 1447.86 372.696L1457.97 367.231C1457.97 367.231 1466.35 364.24 1477.4 371.935C1490.69 381.191 1508.66 393.207 1514.08 397.406C1519.49 401.604 1519 411.994 1519 411.994L1556.83 412.59L1567.99 408.258L1578.28 399.053L1577.42 387.202L1568.04 379.302L1561.28 373.64L1557.54 372.059L1555.8 374.236Z" stroke="black" stroke-width="2.28104" stroke-miterlimit="10" stroke-linejoin="round"/>
</g>
<path d="M1443.51 366.747C1443.51 366.747 1447.42 362.14 1453.13 360.313" stroke="black" stroke-width="1.14052" stroke-miterlimit="10" stroke-linejoin="round"/>
<path d="M1445.53 369.703C1445.53 369.703 1449.54 365.868 1455.58 363.925" stroke="black" stroke-width="1.14052" stroke-miterlimit="10" stroke-linejoin="round"/>
<path d="M1483.89 567.017L1529.4 546.075L1490.74 462.336L1600.64 460.44C1600.64 460.44 1633.04 447.278 1632.63 411.399L1631.65 391.943L1576.49 391.96C1576.49 391.96 1569.23 406.737 1548.06 410.33C1548.06 410.33 1535.07 413.139 1514.31 396.879C1514.31 396.879 1461.25 400.768 1444.48 421.348C1427.71 441.929 1460.36 519.196 1464.78 527.868C1469.21 536.54 1483.89 567.017 1483.89 567.017Z" fill="white"/>
<mask id="mask3_1379_7874" style="mask-type:luminance" maskUnits="userSpaceOnUse" x="1439" y="391" width="194" height="177">
<path d="M1632.64 391.943H1439.73V567.017H1632.64V391.943Z" fill="black"/>
<path d="M1483.89 567.017L1529.4 546.075L1490.74 462.336L1600.64 460.44C1600.64 460.44 1633.04 447.278 1632.63 411.399L1631.65 391.943L1576.49 391.96C1576.49 391.96 1569.23 406.737 1548.06 410.33C1548.06 410.33 1535.07 413.139 1514.31 396.879C1514.31 396.879 1461.25 400.768 1444.48 421.348C1427.71 441.929 1460.36 519.196 1464.78 527.868C1469.21 536.54 1483.89 567.017 1483.89 567.017Z" fill="white"/>
</mask>
<g mask="url(#mask3_1379_7874)">
<path d="M1483.89 567.017L1529.4 546.075L1490.74 462.336L1600.64 460.44C1600.64 460.44 1633.04 447.278 1632.63 411.399L1631.65 391.943L1576.49 391.96C1576.49 391.96 1569.23 406.737 1548.06 410.33C1548.06 410.33 1535.07 413.139 1514.31 396.879C1514.31 396.879 1461.25 400.768 1444.48 421.348C1427.71 441.929 1460.36 519.196 1464.78 527.868C1469.21 536.54 1483.89 567.017 1483.89 567.017Z" stroke="black" stroke-width="2.28104" stroke-miterlimit="10" stroke-linejoin="round"/>
</g>
<path d="M1516.22 551.91L1531.87 580.548L1491.36 603.978C1491.36 603.978 1484.08 586.506 1502.4 577.196L1496.26 561.103L1516.22 551.91Z" fill="black"/>
<path d="M1620.49 302.746L1674.84 302.254C1674.84 302.254 1676.73 279.283 1652.31 276.878C1652.31 276.878 1649.24 273.598 1647.8 265.456C1646.26 256.79 1644.25 250.385 1623.05 252.446C1623.05 252.446 1610.81 221.406 1584.41 225.404C1561.43 228.882 1554.91 250.36 1556.59 256.674" fill="black"/>
<path d="M1420.28 548.494L1406.87 578.252L1363.79 559.981C1363.79 559.981 1373.34 543.64 1391.79 552.677L1400.93 538.079L1420.28 548.494Z" fill="black"/>
<path d="M1600.95 223.697C1600.91 217.043 1606.26 211.616 1612.91 211.576C1619.55 211.536 1624.97 216.898 1625.01 223.552C1625.05 230.206 1619.7 235.632 1613.05 235.672C1606.41 235.712 1600.99 230.35 1600.95 223.697Z" fill="black"/>
<mask id="mask4_1379_7874" style="mask-type:luminance" maskUnits="userSpaceOnUse" x="1549" y="295" width="104" height="98">
<path d="M1652.49 295.91H1549.49V392.376H1652.49V295.91Z" fill="black"/>
<path d="M1549.49 369.28L1576.8 392.294L1652.49 392.376C1652.49 392.376 1644.78 320.857 1613.31 295.91L1585.04 306.112L1583.86 320.993C1583.86 320.993 1555.97 354.829 1549.49 369.28Z" fill="white"/>
</mask>
<g mask="url(#mask4_1379_7874)">
<path d="M1549 369.37L1576.32 392.383L1652 392.465C1652 392.465 1644.29 320.947 1612.82 296L1584.55 306.201L1583.37 321.082C1583.37 321.082 1555.48 354.918 1549 369.37Z" stroke="#CCB160" stroke-width="102.501" stroke-miterlimit="10" stroke-linejoin="round"/>
</g>
<path d="M1549.49 369.28L1576.8 392.294L1652.49 392.376C1652.49 392.376 1644.78 320.857 1613.31 295.91L1585.04 306.112L1583.86 320.993C1583.86 320.993 1555.97 354.829 1549.49 369.28Z" fill="black"/>
<path d="M1599.84 278.259L1613.34 296.301L1585.5 306.429L1582.84 285.371" fill="white"/>
<path d="M1599.84 278.259L1613.34 296.301L1585.5 306.429L1582.84 285.371" stroke="black" stroke-width="1.14052" stroke-miterlimit="10" stroke-linejoin="round"/>
<path d="M1556.18 256.381C1556.18 256.381 1558.84 303.768 1600.27 278.287L1595.79 270.872C1595.79 270.872 1604.92 267.43 1599.74 257.998C1596.37 251.854 1591.24 254.218 1590.52 259.04C1590.52 259.04 1572.62 262.645 1570.3 245.801C1570.3 245.801 1563.58 256.937 1556.18 256.381Z" fill="white"/>
<mask id="mask5_1379_7874" style="mask-type:luminance" maskUnits="userSpaceOnUse" x="1556" y="245" width="46" height="41">
<path d="M1601.33 245.801H1556.18V285.813H1601.33V245.801Z" fill="black"/>
<path d="M1556.18 256.381C1556.18 256.381 1558.84 303.768 1600.27 278.287L1595.79 270.872C1595.79 270.872 1604.92 267.43 1599.74 257.998C1596.37 251.854 1591.24 254.218 1590.52 259.04C1590.52 259.04 1572.62 262.645 1570.3 245.801C1570.3 245.801 1563.58 256.937 1556.18 256.381Z" fill="white"/>
</mask>
<g mask="url(#mask5_1379_7874)">
<path d="M1556.18 256.381C1556.18 256.381 1558.84 303.768 1600.27 278.287L1595.79 270.872C1595.79 270.872 1604.92 267.43 1599.74 257.998C1596.37 251.854 1591.24 254.218 1590.52 259.04C1590.52 259.04 1572.62 262.645 1570.3 245.801C1570.3 245.801 1563.58 256.937 1556.18 256.381Z" stroke="black" stroke-width="2.28104" stroke-miterlimit="10" stroke-linejoin="round"/>
</g>
<path d="M1592.76 265.22C1592.76 265.22 1596.18 265.165 1595.85 261.272" stroke="black" stroke-width="1.14052" stroke-miterlimit="10" stroke-linejoin="round"/>
<path d="M1573.3 275.672C1573.3 275.672 1578.76 276.059 1581.23 270.938" stroke="black" stroke-width="1.14052" stroke-miterlimit="10" stroke-linejoin="round"/>
<path d="M1604.71 234.356C1604.58 234.41 1604.45 234.509 1604.4 234.65C1604.28 234.933 1604.42 235.26 1604.71 235.376C1605.47 235.669 1606.17 236.139 1606.85 236.586C1607.94 237.313 1608.99 238.11 1609.97 238.988C1613.77 242.407 1616.7 246.532 1619.12 251.018C1616.79 246.123 1613.85 241.437 1609.87 237.709C1608.48 236.413 1606.89 235.101 1605.12 234.356C1604.98 234.298 1604.84 234.302 1604.71 234.356Z" fill="white"/>
<path d="M1441.55 362.975C1441.55 362.975 1447.9 358.132 1450.88 356.675" stroke="black" stroke-width="1.14052" stroke-miterlimit="10" stroke-linejoin="round"/>
<path d="M1475.06 391.387C1475.06 391.387 1476.2 386.081 1482.98 381.302Z" fill="white"/>
<path d="M1475.06 391.387C1475.06 391.387 1476.2 386.081 1482.98 381.302" stroke="black" stroke-width="1.14052" stroke-miterlimit="10" stroke-linejoin="round"/>
<path d="M1478.25 393.874C1478.25 393.874 1481.25 387.028 1485.92 383.915Z" fill="white"/>
<path d="M1478.25 393.874C1478.25 393.874 1481.25 387.028 1485.92 383.915" stroke="black" stroke-width="1.14052" stroke-miterlimit="10" stroke-linejoin="round"/>
<path d="M1559.22 365.223L1578.45 354.477" stroke="white" stroke-width="2" stroke-miterlimit="10" stroke-linejoin="round"/>
<path d="M1574.58 370.894L1583.82 382.984" stroke="white" stroke-width="2" stroke-miterlimit="10" stroke-linejoin="round"/>
<path d="M1581.73 334.924L1599.17 344.626" stroke="white" stroke-width="2" stroke-miterlimit="10" stroke-linejoin="round"/>
<path d="M1597.24 308.805L1594.11 326.865" stroke="white" stroke-width="2" stroke-miterlimit="10" stroke-linejoin="round"/>
<path d="M1606.18 320.148L1624.81 316.865" stroke="white" stroke-width="2" stroke-miterlimit="10" stroke-linejoin="round"/>
<path d="M1613.93 329.402L1624.22 344.477" stroke="white" stroke-width="2" stroke-miterlimit="10" stroke-linejoin="round"/>
<path d="M1596.64 356.715L1610.8 347.76" stroke="white" stroke-width="2" stroke-miterlimit="10" stroke-linejoin="round"/>
<path d="M1587.25 368.059L1604.69 373.879" stroke="white" stroke-width="2" stroke-miterlimit="10" stroke-linejoin="round"/>
<path d="M1616.02 358.357L1624.81 371.79" stroke="white" stroke-width="2" stroke-miterlimit="10" stroke-linejoin="round"/>
<path d="M1639.72 350.298L1632.57 366.865" stroke="white" stroke-width="2" stroke-miterlimit="10" stroke-linejoin="round"/>
<path d="M1606.78 385.82L1618.85 375.074" stroke="white" stroke-width="2" stroke-miterlimit="10" stroke-linejoin="round"/>
<path d="M1627.05 382.685L1645.68 382.536" stroke="white" stroke-width="2" stroke-miterlimit="10" stroke-linejoin="round"/>
<path fill-rule="evenodd" clip-rule="evenodd" d="M221.937 489.213L221.857 489.339C221.494 489.854 221.114 490.369 220.903 490.745C218.042 495.876 213.108 500.34 208.603 504.025C197.821 512.837 187.514 522.226 177.4 531.799C174.565 534.481 172.063 537.508 169.412 540.364C168.628 541.211 167.863 542.066 167.092 542.921C166.761 543.297 165.879 543.902 165.499 544.291C165.221 544.569 165.087 544.842 165.033 545.021C164.908 545.478 165.024 545.84 165.27 546.127C165.427 546.315 165.722 546.575 166.313 546.57C172.528 546.503 180.695 543.525 189.234 539.505C201.775 533.599 215.149 525.472 224.19 521.55C226.567 520.52 231.049 517.587 235.173 515.546C237 514.637 238.737 513.88 240.134 513.643C239.297 514.422 238.164 515.295 237.613 515.89C235.236 518.465 232.469 520.663 229.948 523.09C222.278 530.469 203.638 557.41 198.211 566.656C193.819 574.134 172.877 619.048 170.992 647.807C170.952 648.425 171.418 648.957 172.036 648.998C172.653 649.038 173.186 648.568 173.227 647.954C175.089 619.54 195.802 575.177 200.141 567.789C205.509 558.646 223.917 531.996 231.497 524.707C234.054 522.248 236.848 520.014 239.257 517.408C240.125 516.468 242.288 514.843 242.906 513.867C243.255 513.316 243.286 512.81 243.179 512.447C243.044 512.004 242.709 511.529 241.844 511.39C240.43 511.167 238.442 511.655 236.248 512.581C231.68 514.516 226.061 518.299 223.299 519.499C214.245 523.426 200.844 531.562 188.28 537.481C181.277 540.776 174.552 543.396 169.022 544.125C169.694 543.373 170.37 542.63 171.055 541.887C173.67 539.061 176.137 536.075 178.935 533.424C189.014 523.892 199.281 514.534 210.018 505.758C214.733 501.903 219.864 497.201 222.86 491.837C223.281 491.08 224.378 489.737 224.602 488.976C224.745 488.488 224.678 488.076 224.516 487.776C224.324 487.404 223.975 487.069 223.294 487.015C220.509 486.787 215.812 487.628 210.332 489.043C197.884 492.263 181.273 498.383 174.373 500.604C169.739 502.095 165.14 503.783 160.461 505.126C160.229 505.194 155.688 506.103 153.526 506.532C153.96 505.274 154.856 503.577 155.957 501.656C159.835 494.909 166.519 485.739 168.512 482.931C172.331 477.545 176.28 472.27 179.974 466.794C185.804 458.153 191.343 449.332 197.266 440.753C197.62 440.247 197.49 439.549 196.984 439.2C196.474 438.846 195.775 438.976 195.426 439.482C189.493 448.065 183.95 456.895 178.116 465.545C174.436 471.003 170.495 476.264 166.685 481.637C164.675 484.472 157.932 493.731 154.018 500.542C152.223 503.662 151.05 506.331 151 507.75C150.991 508.144 151.206 508.941 152.294 508.995C153.687 509.062 160.748 507.374 161.079 507.28C165.781 505.928 170.401 504.231 175.058 502.735C181.935 500.524 198.489 494.421 210.891 491.215C215.356 490.06 219.264 489.267 221.937 489.213Z" fill="black"/>
<rect x="280.5" y="494.5" width="149" height="199" fill="white" stroke="black"/>
<rect x="135" y="394" width="125" height="300" fill="#CCB160" fill-opacity="0.25"/>
<path d="M1508.5 162V112.5H1465L1508.5 162Z" fill="#CCB160"/>
<rect x="1352.5" y="7.5" width="156" height="105" stroke="black"/>
<line y1="-0.5" x2="106" y2="-0.5" transform="matrix(-1 0 0 1 1484 38)" stroke="black"/>
<line y1="-0.5" x2="88" y2="-0.5" transform="matrix(-1 8.74228e-08 8.74228e-08 1 1466 60)" stroke="black"/>
<line y1="-0.5" x2="67" y2="-0.5" transform="matrix(-1 -8.74228e-08 -8.74228e-08 1 1445 82)" stroke="black"/>
<path d="M229.322 237V205.064H257.387L229.322 237Z" fill="#CCB160"/>
<rect x="-0.5" y="0.5" width="100.29" height="67.3871" transform="matrix(-1 0 0 1 329.289 137)" stroke="black"/>
<line x1="245.129" y1="156.5" x2="313.516" y2="156.5" stroke="black"/>
<line x1="256.742" y1="170.694" x2="313.516" y2="170.694" stroke="black"/>
<line x1="270.289" y1="184.887" x2="313.515" y2="184.887" stroke="black"/>
<circle cx="99" cy="84" r="16" fill="#CCB160"/>
<circle cx="1265" cy="423" r="12" fill="#CCB160"/>
<circle cx="656" cy="19" r="19" fill="#CCB160"/>
<circle cx="375" cy="334" r="27.5" stroke="#CCB160"/>
<path fill-rule="evenodd" clip-rule="evenodd" d="M340.864 658.687C334.48 648.505 332.844 634.22 334.668 619.484C337.397 597.468 347.836 574.455 361.427 562.736C361.71 562.498 362.134 562.53 362.372 562.807C362.617 563.09 362.584 563.508 362.301 563.752C348.923 575.291 338.684 597.97 336.002 619.652C334.215 634.053 335.757 648.023 342.003 657.973C342.202 658.288 342.105 658.7 341.79 658.899C341.482 659.092 341.063 659.002 340.864 658.687Z" fill="black"/>
<path fill-rule="evenodd" clip-rule="evenodd" d="M372.966 544.828C365.44 552.019 359.561 559.094 349.296 563.243C348.949 563.378 348.557 563.217 348.421 562.87C348.28 562.529 348.447 562.137 348.788 562.002C360.082 557.435 365.961 549.241 374.741 541.342C375.217 540.918 375.615 541.182 375.705 541.252C375.841 541.355 376.021 541.561 375.956 541.921C375.943 541.992 375.898 542.127 375.808 542.307C375.628 542.648 375.204 543.311 375.043 543.626C374.586 544.539 374.155 545.459 373.699 546.372C372.393 548.983 371.12 551.601 370.039 554.309C365.98 564.433 362.597 572.685 366.791 583.169C366.932 583.516 366.765 583.902 366.418 584.044C366.077 584.179 365.685 584.011 365.55 583.671C361.208 572.826 364.598 564.279 368.791 553.807C369.891 551.067 371.177 548.411 372.496 545.774C372.657 545.459 372.811 545.144 372.966 544.828Z" fill="black"/>
</svg>
