<svg width="20px" height="20px" viewBox="0 0 48 48" fill="none" xmlns="http://www.w3.org/2000/svg">
<mask id="mask0_712_6138" style="mask-type:alpha" maskUnits="userSpaceOnUse" x="0" y="0" width="48" height="48">
<rect width="48" height="48" fill="#D9D9D9"/>
</mask>
<g mask="url(#mask0_712_6138)">
<path d="M22.65 25.7V32.5C22.65 32.925 22.7946 33.2812 23.0837 33.5688C23.3729 33.8563 23.7313 34 24.1588 34C24.5863 34 24.9417 33.8563 25.225 33.5688C25.5083 33.2812 25.65 32.925 25.65 32.5V25.7H32.5C32.925 25.7 33.2812 25.5554 33.5688 25.2663C33.8563 24.9771 34 24.6187 34 24.1913C34 23.7638 33.8563 23.4083 33.5688 23.125C33.2812 22.8417 32.925 22.7 32.5 22.7H25.65V15.5C25.65 15.075 25.5054 14.7188 25.2163 14.4313C24.9271 14.1438 24.5687 14 24.1413 14C23.7138 14 23.3583 14.1438 23.075 14.4313C22.7917 14.7188 22.65 15.075 22.65 15.5V22.7H15.5C15.075 22.7 14.7188 22.8446 14.4313 23.1337C14.1438 23.4229 14 23.7813 14 24.2087C14 24.6362 14.1438 24.9917 14.4313 25.275C14.7188 25.5583 15.075 25.7 15.5 25.7H22.65ZM24.0133 44C21.2555 44 18.6638 43.475 16.2383 42.425C13.8128 41.375 11.6917 39.9417 9.875 38.125C8.05833 36.3083 6.625 34.186 5.575 31.7579C4.525 29.33 4 26.7356 4 23.975C4 21.2144 4.525 18.6201 5.575 16.192C6.625 13.764 8.05833 11.65 9.875 9.85C11.6917 8.05 13.814 6.625 16.2421 5.575C18.6701 4.525 21.2644 4 24.025 4C26.7856 4 29.38 4.525 31.808 5.575C34.236 6.625 36.35 8.05 38.15 9.85C39.95 11.65 41.375 13.7667 42.425 16.2C43.475 18.6333 44 21.2289 44 23.9867C44 26.7445 43.475 29.3362 42.425 31.7617C41.375 34.1872 39.95 36.3053 38.15 38.1158C36.35 39.9263 34.2333 41.3597 31.8 42.4158C29.3667 43.4719 26.7711 44 24.0133 44Z" fill="#1C1B1F"/>
</g>
</svg>
