<svg width="24" height="24" viewBox="0 0 24 24" fill="none" xmlns="http://www.w3.org/2000/svg">
<mask id="mask0_1662_53" style="mask-type:alpha" maskUnits="userSpaceOnUse" x="0" y="0" width="24" height="24">
<rect width="24" height="24" fill="#D9D9D9"/>
</mask>
<g mask="url(#mask0_1662_53)">
<path d="M12.0003 13.75C12.2129 13.75 12.391 13.6781 12.5346 13.5344C12.6782 13.3906 12.75 13.2125 12.75 13V10.75H15C15.2125 10.75 15.3906 10.6781 15.5344 10.5343C15.6781 10.3904 15.75 10.2122 15.75 9.99965C15.75 9.78705 15.6781 9.60896 15.5344 9.46538C15.3906 9.32179 15.2125 9.25 15 9.25H12.75V6.99998C12.75 6.78748 12.6781 6.60935 12.5343 6.4656C12.3904 6.32187 12.2122 6.25 11.9997 6.25C11.7871 6.25 11.609 6.32187 11.4654 6.4656C11.3218 6.60935 11.25 6.78748 11.25 6.99998V9.25H8.99998C8.78748 9.25 8.60936 9.3219 8.46563 9.4657C8.32188 9.60952 8.25 9.78772 8.25 10.0003C8.25 10.2129 8.32188 10.391 8.46563 10.5346C8.60936 10.6782 8.78748 10.75 8.99998 10.75H11.25V13C11.25 13.2125 11.3219 13.3906 11.4657 13.5344C11.6095 13.6781 11.7877 13.75 12.0003 13.75ZM2.5 18.8538V4.3077C2.5 3.80257 2.675 3.375 3.025 3.025C3.375 2.675 3.80257 2.5 4.3077 2.5H19.6923C20.1974 2.5 20.625 2.675 20.975 3.025C21.325 3.375 21.5 3.80257 21.5 4.3077V15.6923C21.5 16.1974 21.325 16.625 20.975 16.975C20.625 17.325 20.1974 17.5 19.6923 17.5H6.03845L4.03655 19.5019C3.75193 19.7865 3.42469 19.8504 3.05483 19.6936C2.68494 19.5368 2.5 19.2569 2.5 18.8538Z" fill="#3E2A28"/>
</g>
</svg>
