<svg width="48" height="48" viewBox="0 0 48 48" fill="none" xmlns="http://www.w3.org/2000/svg">
<mask id="mask0_712_6132" style="mask-type:alpha" maskUnits="userSpaceOnUse" x="0" y="0" width="48" height="48">
<rect width="48" height="48" fill="#D9D9D9"/>
</mask>
<g mask="url(#mask0_712_6132)">
<path d="M24.0087 28C24.4362 28 24.7917 27.8563 25.075 27.5688C25.3583 27.2812 25.5 26.925 25.5 26.5V21.5H30.5C30.925 21.5 31.2812 21.3554 31.5688 21.0663C31.8563 20.7771 32 20.4187 32 19.9913C32 19.5638 31.8563 19.2083 31.5688 18.925C31.2812 18.6417 30.925 18.5 30.5 18.5H25.5V13.5C25.5 13.075 25.3554 12.7188 25.0663 12.4313C24.7771 12.1438 24.4187 12 23.9913 12C23.5638 12 23.2083 12.1438 22.925 12.4313C22.6417 12.7188 22.5 13.075 22.5 13.5V18.5H17.5C17.075 18.5 16.7188 18.6446 16.4313 18.9337C16.1438 19.2229 16 19.5813 16 20.0087C16 20.4362 16.1438 20.7917 16.4313 21.075C16.7188 21.3583 17.075 21.5 17.5 21.5H22.5V26.5C22.5 26.925 22.6446 27.2812 22.9338 27.5688C23.2229 27.8563 23.5813 28 24.0087 28ZM4 40.4V7C4 6.23333 4.3 5.54167 4.9 4.925C5.5 4.30833 6.2 4 7 4H41C41.7667 4 42.4583 4.30833 43.075 4.925C43.6917 5.54167 44 6.23333 44 7V33C44 33.7667 43.6917 34.4583 43.075 35.075C42.4583 35.6917 41.7667 36 41 36H12L6.55 41.45C6.08333 41.9167 5.54167 42.0224 4.925 41.7672C4.30833 41.512 4 41.0563 4 40.4Z" fill="#1C1B1F"/>
</g>
</svg>
