<svg width="20px" height="20px" viewBox="0 0 48 48" fill="none" xmlns="http://www.w3.org/2000/svg">
<path d="M9.65333 20.7733C13.4933 28.32 19.68 34.5067 27.2267 38.3467L33.0933 32.48C33.84 31.7333 34.88 31.52 35.8133 31.8133C38.8 32.8 42 33.3333 45.3333 33.3333C46.0406 33.3333 46.7189 33.6143 47.219 34.1144C47.7191 34.6145 48 35.2928 48 36V45.3333C48 46.0406 47.7191 46.7189 47.219 47.219C46.7189 47.7191 46.0406 48 45.3333 48C33.3102 48 21.7795 43.2238 13.2778 34.7222C4.77618 26.2205 0 14.6898 0 2.66667C0 1.95942 0.280951 1.28115 0.781048 0.781048C1.28115 0.280951 1.95942 0 2.66667 0H12C12.7072 0 13.3855 0.280951 13.8856 0.781048C14.3857 1.28115 14.6667 1.95942 14.6667 2.66667C14.6667 6 15.2 9.2 16.1867 12.1867C16.48 13.12 16.2667 14.16 15.52 14.9067L9.65333 20.7733Z" fill="black"/>
</svg>
