<svg width="48" height="48" viewBox="0 0 48 48" fill="none" xmlns="http://www.w3.org/2000/svg">
<mask id="mask0_712_6150" style="mask-type:alpha" maskUnits="userSpaceOnUse" x="0" y="0" width="48" height="48">
<rect width="48" height="48" fill="#D9D9D9"/>
</mask>
<g mask="url(#mask0_712_6150)">
<path d="M24 26.2L18.55 20.75C18.25 20.45 17.9 20.3 17.5 20.3C17.1 20.3 16.75 20.45 16.45 20.75C16.15 21.05 16 21.4083 16 21.825C16 22.2417 16.15 22.6 16.45 22.9L22.95 29.4C23.25 29.7 23.6 29.85 24 29.85C24.4 29.85 24.75 29.7 25.05 29.4L31.6 22.85C31.9 22.55 32.0417 22.2 32.025 21.8C32.0083 21.4 31.85 21.05 31.55 20.75C31.25 20.45 30.9 20.3 30.5 20.3C30.1 20.3 29.75 20.45 29.45 20.75L24 26.2ZM24 44C21.2667 44 18.6833 43.475 16.25 42.425C13.8167 41.375 11.6917 39.9417 9.875 38.125C8.05833 36.3083 6.625 34.1833 5.575 31.75C4.525 29.3167 4 26.7333 4 24C4 21.2333 4.525 18.6333 5.575 16.2C6.625 13.7667 8.05833 11.65 9.875 9.85C11.6917 8.05 13.8167 6.625 16.25 5.575C18.6833 4.525 21.2667 4 24 4C26.7667 4 29.3667 4.525 31.8 5.575C34.2333 6.625 36.35 8.05 38.15 9.85C39.95 11.65 41.375 13.7667 42.425 16.2C43.475 18.6333 44 21.2333 44 24C44 26.7333 43.475 29.3167 42.425 31.75C41.375 34.1833 39.95 36.3083 38.15 38.125C36.35 39.9417 34.2333 41.375 31.8 42.425C29.3667 43.475 26.7667 44 24 44Z" fill="#1C1B1F"/>
</g>
</svg>
