<svg width="48" height="48" viewBox="0 0 48 48" fill="none" xmlns="http://www.w3.org/2000/svg">
<mask id="mask0_712_6156" style="mask-type:alpha" maskUnits="userSpaceOnUse" x="0" y="0" width="48" height="48">
<rect width="48" height="48" fill="#D9D9D9"/>
</mask>
<g mask="url(#mask0_712_6156)">
<path d="M4 32.2V6.1C4 5.63333 4.21667 5.16667 4.65 4.7C5.08333 4.23333 5.53333 4 6 4H31.95C32.45 4 32.9167 4.225 33.35 4.675C33.7833 5.125 34 5.6 34 6.1V23.9C34 24.3667 33.7833 24.8333 33.35 25.3C32.9167 25.7667 32.45 26 31.95 26H12L5.3 32.7C5.03333 32.9667 4.75 33.0333 4.45 32.9C4.15 32.7667 4 32.5333 4 32.2ZM14.05 36C13.5833 36 13.125 35.7667 12.675 35.3C12.225 34.8333 12 34.3667 12 33.9V29H37V12H42C42.4667 12 42.9167 12.2333 43.35 12.7C43.7833 13.1667 44 13.65 44 14.15V42.15C44 42.4833 43.85 42.7167 43.55 42.85C43.25 42.9833 42.9667 42.9167 42.7 42.65L36.05 36H14.05Z" fill="#1C1B1F"/>
</g>
</svg>
