<svg width="20px" height="20px" viewBox="0 0 48 48" fill="none" xmlns="http://www.w3.org/2000/svg">
<path d="M34.464 28.8C34.656 27.216 34.8 25.632 34.8 24C34.8 22.368 34.656 20.784 34.464 19.2H42.576C42.96 20.736 43.2 22.344 43.2 24C43.2 25.656 42.96 27.264 42.576 28.8M30.216 42.144C31.656 39.48 32.76 36.6 33.528 33.6H40.608C38.304 37.56 34.632 40.632 30.216 42.144ZM29.616 28.8H18.384C18.144 27.216 18 25.632 18 24C18 22.368 18.144 20.76 18.384 19.2H29.616C29.832 20.76 30 22.368 30 24C30 25.632 29.832 27.216 29.616 28.8ZM24 43.104C22.008 40.224 20.4 37.032 19.416 33.6H28.584C27.6 37.032 25.992 40.224 24 43.104ZM14.4 14.4H7.392C9.672 10.416 13.368 7.344 17.76 5.856C16.32 8.52 15.24 11.4 14.4 14.4ZM7.392 33.6H14.4C15.24 36.6 16.32 39.48 17.76 42.144C13.368 40.632 9.672 37.56 7.392 33.6ZM5.424 28.8C5.04 27.264 4.8 25.656 4.8 24C4.8 22.344 5.04 20.736 5.424 19.2H13.536C13.344 20.784 13.2 22.368 13.2 24C13.2 25.632 13.344 27.216 13.536 28.8M24 4.872C25.992 7.752 27.6 10.968 28.584 14.4H19.416C20.4 10.968 22.008 7.752 24 4.872ZM40.608 14.4H33.528C32.76 11.4 31.656 8.52 30.216 5.856C34.632 7.368 38.304 10.416 40.608 14.4ZM24 0C10.728 0 0 10.8 0 24C0 30.3652 2.52856 36.4697 7.02944 40.9706C9.25804 43.1992 11.9038 44.967 14.8156 46.1731C17.7274 47.3792 20.8483 48 24 48C30.3652 48 36.4697 45.4714 40.9706 40.9706C45.4714 36.4697 48 30.3652 48 24C48 20.8483 47.3792 17.7274 46.1731 14.8156C44.967 11.9038 43.1992 9.25804 40.9706 7.02944C38.742 4.80083 36.0962 3.033 33.1844 1.82689C30.2726 0.620778 27.1517 0 24 0Z" fill="black"/>
</svg>
