<svg width="48" height="48" viewBox="0 0 48 48" fill="none" xmlns="http://www.w3.org/2000/svg">
<mask id="mask0_712_6114" style="mask-type:alpha" maskUnits="userSpaceOnUse" x="0" y="0" width="48" height="48">
<rect width="48" height="48" fill="#D9D9D9"/>
</mask>
<g mask="url(#mask0_712_6114)">
<path d="M24.2014 35.65C24.7338 35.65 25.1833 35.4662 25.55 35.0986C25.9167 34.731 26.1 34.281 26.1 33.7486C26.1 33.2162 25.9162 32.7667 25.5486 32.4C25.181 32.0333 24.731 31.85 24.1986 31.85C23.6662 31.85 23.2167 32.0338 22.85 32.4014C22.4833 32.769 22.3 33.219 22.3 33.7514C22.3 34.2838 22.4838 34.7333 22.8514 35.1C23.219 35.4667 23.669 35.65 24.2014 35.65ZM24.0133 44C21.2555 44 18.6638 43.475 16.2383 42.425C13.8128 41.375 11.6917 39.9417 9.875 38.125C8.05833 36.3083 6.625 34.186 5.575 31.7579C4.525 29.33 4 26.7356 4 23.975C4 21.2144 4.525 18.6201 5.575 16.192C6.625 13.764 8.05833 11.65 9.875 9.85C11.6917 8.05 13.814 6.625 16.2421 5.575C18.6701 4.525 21.2644 4 24.025 4C26.7856 4 29.38 4.525 31.808 5.575C34.236 6.625 36.35 8.05 38.15 9.85C39.95 11.65 41.375 13.7667 42.425 16.2C43.475 18.6333 44 21.2289 44 23.9867C44 26.7445 43.475 29.3362 42.425 31.7617C41.375 34.1872 39.95 36.3053 38.15 38.1158C36.35 39.9263 34.2333 41.3597 31.8 42.4158C29.3667 43.4719 26.7711 44 24.0133 44ZM24.1383 15C25.1461 15 26.0333 15.3083 26.8 15.925C27.5667 16.5417 27.95 17.3283 27.95 18.2848C27.95 19.1616 27.6892 19.9238 27.1676 20.5714C26.646 21.219 26.0568 21.8286 25.4 22.4C24.6333 23.0333 23.9667 23.7397 23.4 24.5193C22.8333 25.2987 22.55 26.1756 22.55 27.15C22.55 27.5167 22.69 27.8083 22.97 28.025C23.25 28.2417 23.5767 28.35 23.95 28.35C24.35 28.35 24.6812 28.2167 24.9438 27.95C25.2063 27.6833 25.375 27.35 25.45 26.95C25.55 26.25 25.8167 25.6167 26.25 25.05C26.6833 24.4833 27.1872 23.9703 27.7616 23.5108C28.5872 22.8369 29.2667 22.05 29.8 21.15C30.3333 20.25 30.6 19.2731 30.6 18.2193C30.6 16.5398 29.975 15.1417 28.725 14.025C27.475 12.9083 25.9925 12.35 24.2774 12.35C23.0925 12.35 21.95 12.6 20.85 13.1C19.75 13.6 18.85 14.3333 18.15 15.3C17.9167 15.6333 17.8083 15.9917 17.825 16.375C17.8417 16.7583 17.9995 17.0667 18.2984 17.3C18.679 17.5667 19.0731 17.65 19.4808 17.55C19.8884 17.45 20.2282 17.2167 20.5 16.85C20.925 16.2532 21.4562 15.7957 22.0938 15.4774C22.7313 15.1591 23.4128 15 24.1383 15Z" fill="#1C1B1F"/>
</g>
</svg>
