<svg width="48" height="48" viewBox="0 0 48 48" fill="none" xmlns="http://www.w3.org/2000/svg">
<mask id="mask0_712_6120" style="mask-type:alpha" maskUnits="userSpaceOnUse" x="0" y="0" width="48" height="48">
<rect width="48" height="48" fill="#D9D9D9"/>
</mask>
<g mask="url(#mask0_712_6120)">
<path d="M24.1588 34C24.5863 34 24.9417 33.8563 25.225 33.5688C25.5083 33.2812 25.65 32.925 25.65 32.5V23.5C25.65 23.075 25.5054 22.7188 25.2163 22.4312C24.9271 22.1437 24.5687 22 24.1413 22C23.7138 22 23.3583 22.1437 23.075 22.4312C22.7917 22.7188 22.65 23.075 22.65 23.5V32.5C22.65 32.925 22.7946 33.2812 23.0837 33.5688C23.3729 33.8563 23.7313 34 24.1588 34ZM23.9991 18.3C24.4664 18.3 24.8583 18.1467 25.175 17.84C25.4917 17.5333 25.65 17.1533 25.65 16.7C25.65 16.2183 25.492 15.8146 25.1759 15.4887C24.8598 15.1629 24.4681 15 24.0009 15C23.5336 15 23.1417 15.1629 22.825 15.4887C22.5083 15.8146 22.35 16.2183 22.35 16.7C22.35 17.1533 22.508 17.5333 22.8241 17.84C23.1402 18.1467 23.5319 18.3 23.9991 18.3ZM24.0133 44C21.2555 44 18.6638 43.475 16.2383 42.425C13.8128 41.375 11.6917 39.9417 9.875 38.125C8.05833 36.3083 6.625 34.186 5.575 31.7579C4.525 29.33 4 26.7356 4 23.975C4 21.2144 4.525 18.6201 5.575 16.192C6.625 13.764 8.05833 11.65 9.875 9.85C11.6917 8.05 13.814 6.625 16.2421 5.575C18.6701 4.525 21.2644 4 24.025 4C26.7856 4 29.38 4.525 31.808 5.575C34.236 6.625 36.35 8.05 38.15 9.85C39.95 11.65 41.375 13.7667 42.425 16.2C43.475 18.6333 44 21.2289 44 23.9867C44 26.7445 43.475 29.3362 42.425 31.7617C41.375 34.1872 39.95 36.3053 38.15 38.1158C36.35 39.9263 34.2333 41.3597 31.8 42.4158C29.3667 43.4719 26.7711 44 24.0133 44Z" fill="#1C1B1F"/>
</g>
</svg>
