<svg width="7vw" height="7vh" viewBox="0 0 30 32" fill="none" xmlns="http://www.w3.org/2000/svg">
<path fill-rule="evenodd" clip-rule="evenodd" d="M11.7 1.52V6.7488C11.6994 6.99595 11.7599 7.23943 11.876 7.4576L13.5528 10.6336L13.5848 10.6928C13.7057 10.9164 13.8847 11.1031 14.103 11.2332C14.3213 11.3633 14.5707 11.432 14.8248 11.432C15.0789 11.432 15.3283 11.3633 15.5466 11.2332C15.7649 11.1031 15.9439 10.9164 16.0648 10.6928L16.0968 10.6336L17.7752 7.4576C17.8894 7.23876 17.9492 6.99564 17.9496 6.7488V1.52C17.9496 1.11715 17.7897 0.730772 17.505 0.445763C17.2203 0.160754 16.8341 0.000424055 16.4312 0H13.22C12.817 0.000423541 12.4306 0.160702 12.1457 0.445666C11.8607 0.730629 11.7004 1.117 11.7 1.52ZM1.81042 6.5936L0.197619 9.44C-0.000159646 9.78994 -0.0514367 10.2039 0.0549855 10.5915C0.161408 10.9792 0.416883 11.3089 0.765619 11.5088L5.26002 14.0688C5.46738 14.1877 5.69975 14.2562 5.93842 14.2688L10.3368 14.4896C10.5755 14.4998 10.8082 14.5673 11.0152 14.6864C11.3009 14.8494 11.526 15.1006 11.6567 15.4023C11.7874 15.7041 11.8168 16.0401 11.7403 16.36C11.6639 16.6798 11.4858 16.9663 11.2327 17.1763C10.9796 17.3863 10.6653 17.5086 10.3368 17.5248L5.93842 17.7392C5.6996 17.7497 5.46686 17.8178 5.26002 17.9376L0.765619 20.4976C0.416452 20.6975 0.160668 21.0275 0.0542224 21.4155C-0.0522231 21.8035 -0.000664635 22.2179 0.197619 22.568L1.81682 25.3968C1.91658 25.5723 2.0503 25.7262 2.21019 25.8495C2.37008 25.9728 2.55292 26.0629 2.74804 26.1148C2.94317 26.1666 3.14666 26.1791 3.34665 26.1514C3.54663 26.1237 3.7391 26.0565 3.91282 25.9536L8.39282 23.2992C8.59424 23.1796 8.76556 23.0154 8.89362 22.8192L11.2632 19.1552C11.3871 18.9662 11.551 18.8067 11.7432 18.688H11.7576C11.9878 18.5451 12.252 18.4664 12.5228 18.4599C12.7936 18.4534 13.0613 18.5194 13.298 18.6511C13.5348 18.7827 13.732 18.9753 13.8694 19.2088C14.0067 19.4423 14.0792 19.7083 14.0792 19.9792V20C14.0764 20.2451 14.015 20.4859 13.9 20.7024L11.876 24.5424C11.7604 24.7608 11.7 25.0041 11.7 25.2512V30.48C11.7 30.8831 11.8602 31.2697 12.1452 31.5548C12.4303 31.8399 12.8169 32 13.22 32H16.4312C16.6308 32 16.8283 31.9607 17.0127 31.8843C17.197 31.8079 17.3644 31.6959 17.5055 31.5547C17.6465 31.4135 17.7583 31.246 17.8345 31.0616C17.9107 30.8772 17.9498 30.6795 17.9496 30.48V25.2576C17.9494 25.0107 17.8896 24.7676 17.7752 24.5488L15.7496 20.7088C15.6353 20.49 15.5754 20.2469 15.5752 20V19.9872C15.5754 19.7165 15.6479 19.4508 15.7852 19.2176C15.9225 18.9843 16.1195 18.7919 16.356 18.6603C16.5925 18.5287 16.8599 18.4626 17.1305 18.4688C17.4011 18.4751 17.6651 18.5535 17.8952 18.696H17.9096C18.1023 18.8141 18.2663 18.9737 18.3896 19.1632L20.7608 22.8272C20.8895 23.0234 21.0613 23.1876 21.2632 23.3072L25.7432 25.9616C25.9169 26.0645 26.1094 26.1317 26.3094 26.1594C26.5094 26.1871 26.7129 26.1746 26.908 26.1228C27.1031 26.0709 27.286 25.9808 27.4458 25.8575C27.6057 25.7342 27.7395 25.5803 27.8392 25.4048L29.452 22.5632C29.6503 22.2131 29.7019 21.7987 29.5954 21.4107C29.489 21.0227 29.2332 20.6927 28.884 20.4928L24.3912 17.9328C24.1837 17.8132 23.9505 17.7451 23.7112 17.7344L19.3144 17.52C19.0751 17.5079 18.8421 17.4394 18.6344 17.32C18.349 17.157 18.1243 16.9059 17.9938 16.6043C17.8633 16.3027 17.8342 15.9669 17.9109 15.6473C17.9875 15.3278 18.1657 15.0417 18.4188 14.8321C18.6719 14.6224 18.9862 14.5006 19.3144 14.4848L23.7112 14.2704C23.9504 14.2575 24.1832 14.1891 24.3912 14.0704L28.884 11.5104C29.2332 11.3105 29.489 10.9805 29.5954 10.5925C29.7019 10.2045 29.6503 9.79008 29.452 9.44L27.8392 6.5936C27.7387 6.41887 27.6043 6.2659 27.4441 6.14358C27.2838 6.02127 27.1009 5.93205 26.9058 5.88112C26.7107 5.8302 26.5075 5.81859 26.3079 5.84696C26.1083 5.87534 25.9164 5.94313 25.7432 6.0464L21.2632 8.7008C21.0613 8.82037 20.8895 8.98456 20.7608 9.1808L18.3896 12.8448C18.2658 13.0334 18.1019 13.1924 17.9096 13.3104L17.8952 13.32C17.5906 13.509 17.229 13.5844 16.8743 13.5329C16.5195 13.4814 16.1943 13.3063 15.956 13.0384C15.9352 13.0112 15.9144 12.9856 15.892 12.96C15.7607 12.8078 15.5984 12.6853 15.4159 12.6009C15.2335 12.5165 15.0351 12.4721 14.834 12.4706C14.633 12.469 14.434 12.5105 14.2503 12.5921C14.0666 12.6738 13.9024 12.7938 13.7688 12.944C13.7464 12.9744 13.7208 13.0048 13.6952 13.0336C13.457 13.3011 13.132 13.4758 12.7775 13.5271C12.423 13.5783 12.0618 13.5027 11.7576 13.3136L11.7432 13.304C11.5514 13.1854 11.3876 13.0265 11.2632 12.8384L8.88722 9.1728C8.75916 8.97663 8.58784 8.81243 8.38642 8.6928L3.90642 6.0384C3.73286 5.93524 3.54046 5.86773 3.3405 5.83983C3.14053 5.81192 2.93701 5.82418 2.74184 5.87587C2.54666 5.92757 2.36376 6.01768 2.20383 6.14091C2.0439 6.26415 1.91015 6.41805 1.81042 6.5936Z" fill="black"/>
</svg>
