<svg width="48" height="48" viewBox="0 0 48 48" fill="none" xmlns="http://www.w3.org/2000/svg">
<mask id="mask0_712_6108" style="mask-type:alpha" maskUnits="userSpaceOnUse" x="0" y="0" width="48" height="48">
<rect width="48" height="48" fill="#D9D9D9"/>
</mask>
<g mask="url(#mask0_712_6108)">
<path d="M31.3 21.35C32.08 21.35 32.725 21.095 33.235 20.585C33.745 20.075 34 19.43 34 18.65C34 17.87 33.745 17.225 33.235 16.715C32.725 16.205 32.08 15.95 31.3 15.95C30.52 15.95 29.875 16.205 29.365 16.715C28.855 17.225 28.6 17.87 28.6 18.65C28.6 19.43 28.855 20.075 29.365 20.585C29.875 21.095 30.52 21.35 31.3 21.35ZM16.7 21.35C17.48 21.35 18.125 21.095 18.635 20.585C19.145 20.075 19.4 19.43 19.4 18.65C19.4 17.87 19.145 17.225 18.635 16.715C18.125 16.205 17.48 15.95 16.7 15.95C15.92 15.95 15.275 16.205 14.765 16.715C14.255 17.225 14 17.87 14 18.65C14 19.43 14.255 20.075 14.765 20.585C15.275 21.095 15.92 21.35 16.7 21.35ZM24 34.95C25.9 34.95 27.6917 34.5 29.375 33.6C31.0583 32.7 32.3833 31.45 33.35 29.85C33.6167 29.45 33.6417 29.1 33.425 28.8C33.2083 28.5 32.8691 28.35 32.4073 28.35H15.5863C15.1246 28.35 14.7948 28.5 14.5969 28.8C14.399 29.1 14.4333 29.45 14.7 29.85C15.6667 31.45 16.9833 32.7 18.65 33.6C20.3167 34.5 22.1 34.95 24 34.95ZM24.0133 44C21.2555 44 18.6638 43.475 16.2383 42.425C13.8128 41.375 11.6917 39.9417 9.875 38.125C8.05833 36.3083 6.625 34.186 5.575 31.7579C4.525 29.33 4 26.7356 4 23.975C4 21.2144 4.525 18.6201 5.575 16.192C6.625 13.764 8.05833 11.65 9.875 9.85C11.6917 8.05 13.814 6.625 16.2421 5.575C18.6701 4.525 21.2644 4 24.025 4C26.7856 4 29.38 4.525 31.808 5.575C34.236 6.625 36.35 8.05 38.15 9.85C39.95 11.65 41.375 13.7667 42.425 16.2C43.475 18.6333 44 21.2289 44 23.9867C44 26.7445 43.475 29.3362 42.425 31.7617C41.375 34.1872 39.95 36.3053 38.15 38.1158C36.35 39.9263 34.2333 41.3597 31.8 42.4158C29.3667 43.4719 26.7711 44 24.0133 44Z" fill="#1C1B1F"/>
</g>
</svg>
