<svg width="48" height="48" viewBox="0 0 48 48" fill="none" xmlns="http://www.w3.org/2000/svg">
<mask id="mask0_712_6126" style="mask-type:alpha" maskUnits="userSpaceOnUse" x="0" y="0" width="48" height="48">
<rect width="48" height="48" fill="#D9D9D9"/>
</mask>
<g mask="url(#mask0_712_6126)">
<path d="M16.6 43.8L13.5 38.5L7.30001 37.25C6.93335 37.1833 6.62501 36.9833 6.37501 36.65C6.12501 36.3167 6.03335 35.9667 6.10001 35.6L6.80001 29.6L2.85001 25C2.58335 24.7333 2.45001 24.4 2.45001 24C2.45001 23.6 2.58335 23.2667 2.85001 23L6.80001 18.45L6.10001 12.45C6.03335 12.0833 6.12501 11.7333 6.37501 11.4C6.62501 11.0667 6.93335 10.8667 7.30001 10.8L13.5 9.55L16.6 4.2C16.8 3.86666 17.0833 3.63333 17.45 3.5C17.8167 3.36666 18.1833 3.38333 18.55 3.55L24 6.1L29.45 3.55C29.8167 3.38333 30.1833 3.35833 30.55 3.475C30.9167 3.59166 31.2 3.81666 31.4 4.15L34.55 9.55L40.7 10.8C41.0667 10.8667 41.375 11.0667 41.625 11.4C41.875 11.7333 41.9667 12.0833 41.9 12.45L41.2 18.45L45.15 23C45.4167 23.2667 45.55 23.6 45.55 24C45.55 24.4 45.4167 24.7333 45.15 25L41.2 29.6L41.9 35.6C41.9667 35.9667 41.875 36.3167 41.625 36.65C41.375 36.9833 41.0667 37.1833 40.7 37.25L34.55 38.5L31.4 43.85C31.2 44.1833 30.9167 44.4083 30.55 44.525C30.1833 44.6417 29.8167 44.6167 29.45 44.45L24 41.9L18.55 44.45C18.1833 44.6167 17.8167 44.6333 17.45 44.5C17.0833 44.3667 16.8 44.1333 16.6 43.8ZM21.85 26.35L18.2 22.55C17.9 22.2167 17.5333 22.05 17.1 22.05C16.6667 22.05 16.2833 22.2 15.95 22.5C15.6167 22.8333 15.45 23.2167 15.45 23.65C15.45 24.0833 15.6167 24.4667 15.95 24.8L20.8 29.6C21.1 29.9 21.45 30.05 21.85 30.05C22.25 30.05 22.6 29.9 22.9 29.6L32.05 20.5C32.35 20.2 32.5 19.8333 32.5 19.4C32.5 18.9667 32.3333 18.6 32 18.3C31.7 18.0333 31.3417 17.9083 30.925 17.925C30.5083 17.9417 30.1667 18.0833 29.9 18.35L21.85 26.35Z" fill="#1C1B1F"/>
</g>
</svg>
