<svg width="48" height="48" viewBox="0 0 48 48" fill="none" xmlns="http://www.w3.org/2000/svg">
<mask id="mask0_712_6168" style="mask-type:alpha" maskUnits="userSpaceOnUse" x="0" y="0" width="48" height="48">
<rect width="48" height="48" fill="#D9D9D9"/>
</mask>
<g mask="url(#mask0_712_6168)">
<path d="M9 42C8.2 42 7.5 41.7 6.9 41.1C6.3 40.5 6 39.8 6 39V9C6 8.2 6.3 7.5 6.9 6.9C7.5 6.3 8.2 6 9 6H21.45C21.875 6 22.2313 6.14458 22.5188 6.43375C22.8063 6.72295 22.95 7.08128 22.95 7.50875C22.95 7.93625 22.8063 8.29167 22.5188 8.575C22.2313 8.85833 21.875 9 21.45 9H9V39H39V26.55C39 26.125 39.1446 25.7688 39.4338 25.4813C39.7229 25.1938 40.0813 25.05 40.5088 25.05C40.9363 25.05 41.2917 25.1938 41.575 25.4813C41.8583 25.7688 42 26.125 42 26.55V39C42 39.8 41.7 40.5 41.1 41.1C40.5 41.7 39.8 42 39 42H9ZM18.0565 29.9305C17.7855 29.6435 17.6417 29.3 17.625 28.9C17.6083 28.5 17.75 28.15 18.05 27.85L36.9 9H27.45C27.025 9 26.6688 8.85542 26.3813 8.56625C26.0938 8.27705 25.95 7.91872 25.95 7.49125C25.95 7.06375 26.0938 6.70833 26.3813 6.425C26.6688 6.14167 27.025 6 27.45 6H40.5C40.925 6 41.2813 6.14375 41.5688 6.43125C41.8563 6.71875 42 7.075 42 7.5V20.55C42 20.975 41.8554 21.3313 41.5662 21.6188C41.2771 21.9063 40.9187 22.05 40.4913 22.05C40.0638 22.05 39.7083 21.9063 39.425 21.6188C39.1417 21.3313 39 20.975 39 20.55V11.15L20.15 30C19.8686 30.2667 19.5232 30.4 19.1139 30.4C18.7046 30.4 18.3522 30.2435 18.0565 29.9305Z" fill="#1C1B1F"/>
</g>
</svg>
