<svg width="20px" height="20px" viewBox="0 0 40 36" fill="none" xmlns="http://www.w3.org/2000/svg">
<path d="M20 0C9 0 0 7.2 0 16C0 20.2 2 24.2 5.6 27C5.6 28.2 4.8 31.4 0 36C0 36 7 36 13 31C15.2 31.6 17.6 32 20 32C31 32 40 24.8 40 16C40 7.2 31 0 20 0ZM22 24H18V20H22V24ZM25.6 14C25 14.8 24.2 15.2 23.4 15.6C22.8 16 22.6 16.2 22.4 16.6C22 17 22 17.4 22 18H18C18 17 18.2 16.4 18.6 15.8C19 15.4 19.8 14.8 20.8 14.2C21.4 14 21.8 13.6 22 13.2C22.2 12.8 22.4 12.2 22.4 11.8C22.4 11.2 22.2 10.8 21.8 10.4C21.4 10 20.8 9.8 20.2 9.8C19.6 9.8 19.2 10 18.8 10.2C18.4 10.4 18.2 10.8 18.2 11.4H14.2C14.4 10 15 8.8 16 8C17 7.2 18.4 7 20.2 7C22 7 23.6 7.4 24.6 8.2C25.6 9 26.2 10.2 26.2 11.6C26.4 12.4 26.2 13.2 25.6 14Z" fill="white"/>
</svg>
