<svg width="57" height="39" viewBox="0 0 57 39" fill="none" xmlns="http://www.w3.org/2000/svg">
<path d="M45.2953 27.3782C45.2953 27.3782 45.4794 35.4079 46.0122 36.4594C46.9527 38.3082 42.0985 38.5764 41.0237 36.8233C40.225 35.5193 40.259 16.9021 40.259 16.9021C40.259 14.0455 39.8863 10.8168 41.932 8.43532C43.6638 6.53091 46.2395 6.26733 48.7581 6.26733C51.2767 6.26733 53.0758 6.68961 54.8076 8.43532C56.8533 10.8168 57.0005 14.1393 57.0005 17.1592C57.0005 20.1792 57.064 23.459 55.0183 25.8404C53.4439 27.5861 51.4295 28.1764 49.0728 28.1764C47.4993 28.3351 46.2395 28.1764 45.2999 27.382L45.2953 27.3782ZM48.7581 11.188C47.814 11.188 46.5248 11.5434 45.8953 12.3379C45.1076 13.2901 45.2061 15.6177 45.2061 16.7286C45.2061 18.3165 45.0911 21.2168 46.0343 22.4826L46.1953 22.6451C46.8247 23.4386 48.1278 23.5731 48.9182 23.5731C49.8624 23.5731 50.79 23.3476 51.4194 22.5523C52.2715 21.6047 52.381 18.6543 52.381 17.2214C52.381 15.6344 52.5292 13.1973 51.2703 12.0864C50.6381 11.4478 49.5449 11.1861 48.7581 11.1861V11.188Z" fill="black"/>
<path d="M20.4726 6.929C22.1025 6.929 23.4237 5.37789 23.4237 3.4645C23.4237 1.55111 22.1025 0 20.4726 0C18.8428 0 17.5215 1.55111 17.5215 3.4645C17.5215 5.37789 18.8428 6.929 20.4726 6.929Z" fill="black"/>
<path d="M33.8027 6.929C35.4326 6.929 36.7538 5.37789 36.7538 3.4645C36.7538 1.55111 35.4326 0 33.8027 0C32.1728 0 30.8516 1.55111 30.8516 3.4645C30.8516 5.37789 32.1728 6.929 33.8027 6.929Z" fill="black"/>
<path d="M12.5542 13.7299C11.4306 12.7508 9.94816 12.0361 8.54851 11.8162C8.07478 11.7547 7.59566 11.7475 7.12034 11.7948C6.74402 11.8179 6.39028 11.9836 6.13018 12.2589C5.97826 12.4173 5.87779 12.6187 5.84216 12.8361C5.76946 13.3067 6.00872 13.8255 6.2949 14.0315C6.97586 14.7805 7.88503 15.0839 8.79421 15.3874C10.3006 15.9443 11.6276 16.6348 12.7263 17.7716C14.2437 19.2946 15.0425 21.3475 14.7278 23.3865C14.6392 23.9515 14.4713 24.5009 14.229 25.018C13.4533 26.6886 11.9708 27.9108 10.2178 28.4296C8.83746 28.8389 6.60225 28.722 6.0943 28.6153C2.22939 27.844 0.682506 27.0375 0.220558 25.7642C-0.36746 24.1457 0.250005 21.4589 1.71867 22.0241C1.83766 22.0729 1.94657 22.1438 2.03982 22.2329C2.35822 22.5271 3.5499 23.4283 6.66115 24.0436C7.26942 24.151 7.89092 24.1585 8.50158 24.0658C8.90466 24.0123 9.27761 23.8217 9.55891 23.5257C9.71596 23.3661 9.81984 23.1611 9.85614 22.9392C9.92515 22.4918 9.73559 21.8598 9.47057 21.6213C9.44287 21.5974 9.41645 21.572 9.39143 21.5452C8.58808 20.6468 7.69087 20.3452 6.66667 19.8682C5.15936 19.3113 3.67689 18.5958 2.57815 17.4552C1.19599 16.1243 0.551836 14.0955 0.865629 12.0566C1.17942 10.0176 2.55975 8.30621 4.28423 7.45238C5.8486 6.57443 8.57888 6.57907 10.2224 7.12849C12.8128 7.99345 14.2051 9.17025 14.3634 10.3415C14.5391 11.7002 13.2204 14.5317 12.5542 13.7299Z" fill="black"/>
<path d="M12.5542 13.7299C11.4306 12.7508 9.94816 12.0361 8.54851 11.8162C8.07478 11.7547 7.59566 11.7475 7.12034 11.7948C6.74402 11.8179 6.39028 11.9836 6.13018 12.2589C5.97826 12.4173 5.87779 12.6187 5.84216 12.8361C5.76946 13.3067 6.00872 13.8255 6.2949 14.0315C6.97586 14.7805 7.88503 15.0839 8.79421 15.3874C10.3006 15.9443 11.6276 16.6348 12.7263 17.7716C14.2437 19.2946 15.0425 21.3475 14.7278 23.3865C14.6392 23.9515 14.4713 24.5009 14.229 25.018C13.4533 26.6886 11.9708 27.9108 10.2178 28.4296C8.83746 28.8389 6.60225 28.722 6.0943 28.6153C2.22939 27.844 0.682506 27.0375 0.220558 25.7642C-0.36746 24.1457 0.250005 21.4589 1.71867 22.0241C1.83766 22.0729 1.94657 22.1438 2.03982 22.2329C2.35822 22.5271 3.5499 23.4283 6.66115 24.0436C7.26942 24.151 7.89092 24.1585 8.50158 24.0658C8.90466 24.0123 9.27761 23.8217 9.55891 23.5257C9.71596 23.3661 9.81984 23.1611 9.85614 22.9392C9.92515 22.4918 9.73559 21.8598 9.47057 21.6213C9.44287 21.5974 9.41645 21.572 9.39143 21.5452C8.58808 20.6468 7.69087 20.3452 6.66667 19.8682C5.15936 19.3113 3.67689 18.5958 2.57815 17.4552C1.19599 16.1243 0.551836 14.0955 0.865629 12.0566C1.17942 10.0176 2.55975 8.30621 4.28423 7.45238C5.8486 6.57443 8.57888 6.57907 10.2224 7.12849C12.8128 7.99345 14.2051 9.17025 14.3634 10.3415C14.5391 11.7002 13.2204 14.5317 12.5542 13.7299Z" fill="black"/>
<path d="M2.08618 31.4729H1.4043V35.3226H2.08618V31.4729Z" fill="black"/>
<path d="M4.40258 31.4729H3.7207V35.3226H4.40258V31.4729Z" fill="black"/>
<path d="M8.76408 32.0232V31.4729H5.62891V32.0232H6.85555V35.3226H7.53743V32.0232H8.76408Z" fill="black"/>
<path d="M11.3555 31.4729V35.3226H12.9916C13.9459 35.3226 14.3545 35.0441 14.3545 34.3601C14.3545 33.8107 14.0784 33.3977 13.5364 33.3977C13.9459 33.2604 14.2183 32.9857 14.2183 32.4353C14.2183 31.885 13.8097 31.4729 12.9916 31.4729H11.3555ZM11.9012 32.0232H12.8554C13.264 32.0232 13.5364 32.3017 13.5364 32.4353C13.5364 32.7137 13.2603 32.9857 12.8554 32.9857H11.9012V32.0232ZM11.9012 33.6724H12.8554C13.264 33.6724 13.6726 33.9509 13.6726 34.2228C13.6726 34.4947 13.3965 34.7731 12.8554 34.7731H11.9012V33.6724Z" fill="black"/>
<path d="M17.49 31.4729C16.3996 31.4729 15.4453 32.298 15.4453 33.3977C15.4453 34.4975 16.3996 35.3226 17.49 35.3226C18.5805 35.3226 19.5357 34.3601 19.5357 33.3977C19.5357 32.298 18.5814 31.4729 17.49 31.4729ZM17.49 32.0232C18.3081 32.0232 18.8538 32.5727 18.8538 33.3977C18.8538 34.2228 18.3081 34.7731 17.49 34.7731C16.672 34.7731 16.1272 34.2228 16.1272 33.3977C16.1279 33.0334 16.2717 32.6842 16.5272 32.4266C16.7826 32.169 17.1288 32.024 17.49 32.0232Z" fill="black"/>
<path d="M24.8517 35.3226V31.4729H24.1698L22.807 33.9481L21.7165 31.4729H20.8984V35.3226H21.5803V32.4353L22.807 34.9105H23.0793L24.306 32.4353V35.3226H24.8517Z" fill="black"/>
<path d="M26.623 31.4729V35.3226H28.2592C29.2135 35.3226 29.622 35.0441 29.622 34.3601C29.622 33.8107 29.346 33.3977 28.804 33.3977C29.2135 33.2604 29.4858 32.9857 29.4858 32.4353C29.4858 31.885 29.0782 31.4729 28.2592 31.4729H26.623ZM27.1678 32.0232H28.1221C28.5316 32.0232 28.804 32.3017 28.804 32.4353C28.804 32.7137 28.5279 32.9857 28.1221 32.9857H27.1678V32.0232ZM27.1678 33.6724H28.1221C28.5316 33.6724 28.9401 33.9509 28.9401 34.2228C28.9401 34.4947 28.6641 34.7731 28.1221 34.7731H27.1678V33.6724Z" fill="black"/>
<path d="M33.5752 34.3601L33.8512 35.3226H34.5331L32.897 31.4729H32.216L30.5762 35.3226H31.2581L31.5341 34.3601H33.5752ZM33.2991 33.8107H31.7991L32.4829 32.1606L33.2991 33.8107Z" fill="black"/>
<path d="M37.1209 33.9481L38.4837 31.4729H37.939L36.8485 33.2604L35.6209 31.4729H35.0762L36.439 33.9481V35.3226H37.1209V33.9481Z" fill="black"/>
<path d="M36.7668 8.23758C36.7668 8.45846 37.8766 27.4979 37.3677 28.9271C36.8781 30.3016 31.9127 30.1708 32.6663 27.7373C33.3031 25.6798 33.3942 15.187 32.8614 14.6812C32.8614 14.6812 29.256 21.3438 27.2601 21.5137C23.4614 21.8376 31.6614 18.2116 31.401 8.92528C31.3826 8.27563 31.9909 7.78468 32.6314 7.77911H32.6663C33.8101 7.77911 33.8626 8.33596 35.1804 7.66032C36.4981 6.98468 36.7668 8.23758 36.7668 8.23758Z" fill="black"/>
<path d="M36.7668 8.23758C36.7668 8.45846 37.8766 27.4979 37.3677 28.9271C36.8781 30.3016 31.9127 30.1708 32.6663 27.7373C33.3031 25.6798 33.3942 15.187 32.8614 14.6812C32.8614 14.6812 29.256 21.3438 27.2601 21.5137C23.4614 21.8376 31.6614 18.2116 31.401 8.92528C31.3826 8.27563 31.9909 7.78468 32.6314 7.77911H32.6663C33.8101 7.77911 33.8626 8.33596 35.1804 7.66032C36.4981 6.98468 36.7668 8.23758 36.7668 8.23758Z" fill="black"/>
<path d="M17.0235 8.23758C17.0235 8.45846 15.9137 27.4979 16.4226 28.9271C16.9121 30.3016 21.8776 30.1708 21.1249 27.7373C20.4872 25.6798 20.3961 15.187 20.9289 14.6812C20.9289 14.6812 24.5361 21.3234 26.5302 21.5137C30.5083 21.8923 22.1288 18.2116 22.3893 8.92528C22.4077 8.27563 21.7994 7.78468 21.1589 7.77911H21.1249C19.9811 7.77911 19.9286 8.33596 18.6109 7.66032C17.2931 6.98468 17.0235 8.23758 17.0235 8.23758Z" fill="black"/>
</svg>
