<svg width="48" height="48" viewBox="0 0 48 48" fill="none" xmlns="http://www.w3.org/2000/svg">
<mask id="mask0_1005_6284" style="mask-type:alpha" maskUnits="userSpaceOnUse" x="0" y="0" width="48" height="48">
<rect width="48" height="48" fill="#D9D9D9"/>
</mask>
<g mask="url(#mask0_1005_6284)">
<path d="M37.9 33.5L31.45 27.05C31.7833 26.5167 32.0417 25.8917 32.225 25.175C32.4083 24.4583 32.5 23.7333 32.5 23C32.5 20.6333 31.675 18.625 30.025 16.975C28.375 15.325 26.3667 14.5 24 14.5C23.2667 14.5 22.55 14.5833 21.85 14.75C21.15 14.9167 20.5167 15.1833 19.95 15.55L14.45 9.99999C15.6167 9.46666 17.1083 8.99999 18.925 8.59999C20.7417 8.19999 22.5167 7.99999 24.25 7.99999C28.75 7.99999 32.9 9.23333 36.7 11.7C40.5 14.1667 43.4 17.4833 45.4 21.65C45.5 21.8167 45.5667 22.0167 45.6 22.25C45.6333 22.4833 45.65 22.7333 45.65 23C45.65 23.2667 45.6333 23.525 45.6 23.775C45.5667 24.025 45.5 24.2333 45.4 24.4C44.5333 26.2333 43.4667 27.9167 42.2 29.45C40.9333 30.9833 39.5 32.3333 37.9 33.5ZM39.7 43.7L32.4 36.55C31.2333 37.0167 29.9167 37.375 28.45 37.625C26.9833 37.875 25.5 38 24 38C19.4 38 15.1833 36.7667 11.35 34.3C7.51667 31.8333 4.60001 28.5167 2.60001 24.35C2.50001 24.15 2.43334 23.9417 2.40001 23.725C2.36667 23.5083 2.35001 23.2667 2.35001 23C2.35001 22.7333 2.37501 22.475 2.42501 22.225C2.47501 21.975 2.53334 21.7667 2.60001 21.6C3.30001 20.1 4.19167 18.6417 5.27501 17.225C6.35834 15.8083 7.63334 14.4667 9.10001 13.2L3.85001 7.94999C3.55001 7.64999 3.40001 7.29999 3.40001 6.89999C3.40001 6.49999 3.55001 6.14999 3.85001 5.84999C4.15001 5.54999 4.50834 5.39999 4.92501 5.39999C5.34167 5.39999 5.70001 5.54999 6.00001 5.84999L41.8 41.65C42.0667 41.9167 42.2 42.2417 42.2 42.625C42.2 43.0083 42.0667 43.35 41.8 43.65C41.5333 43.9833 41.1917 44.15 40.775 44.15C40.3583 44.15 40 44 39.7 43.7ZM24 31.5C24.4667 31.5 24.9667 31.4583 25.5 31.375C26.0333 31.2917 26.4833 31.1667 26.85 31L16 20.15C15.8333 20.55 15.7083 21 15.625 21.5C15.5417 22 15.5 22.5 15.5 23C15.5 25.4 16.3333 27.4167 18 29.05C19.6667 30.6833 21.6667 31.5 24 31.5ZM29.25 24.85L22.15 17.75C24.2167 16.9833 26.1333 17.3833 27.9 18.95C29.6667 20.5167 30.1167 22.4833 29.25 24.85Z" fill="#1C1B1F"/>
</g>
</svg>
