<svg width="100%" height="100%" viewBox="0 0 48 48" fill="svgColor" xmlns="http://www.w3.org/2000/svg">
<mask id="mask0_1005_6290" style="mask-type:alpha" maskUnits="userSpaceOnUse" x="0" y="0" width="48" height="48">
<rect width="48" height="48" fill="#D9D9D9"/>
</mask>
<g mask="url(#mask0_1005_6290)">
<path d="M24.0059 31.5C26.3686 31.5 28.375 30.673 30.025 29.0191C31.675 27.3652 32.5 25.3569 32.5 22.9941C32.5 20.6314 31.673 18.625 30.0191 16.975C28.3652 15.325 26.3568 14.5 23.9941 14.5C21.6313 14.5 19.625 15.327 17.975 16.9809C16.325 18.6348 15.5 20.6431 15.5 23.0059C15.5 25.3686 16.3269 27.375 17.9809 29.025C19.6348 30.675 21.6431 31.5 24.0059 31.5ZM23.9882 28.6C22.4294 28.6 21.1083 28.0544 20.025 26.9633C18.9416 25.8721 18.4 24.5471 18.4 22.9883C18.4 21.4294 18.9456 20.1083 20.0367 19.025C21.1279 17.9417 22.4529 17.4 24.0117 17.4C25.5706 17.4 26.8916 17.9456 27.975 19.0367C29.0583 20.1279 29.6 21.4529 29.6 23.0117C29.6 24.5706 29.0544 25.8917 27.9632 26.975C26.872 28.0583 25.547 28.6 23.9882 28.6ZM24 38C19.4 38 15.2083 36.75 11.425 34.25C7.64164 31.75 4.71906 28.4487 2.65723 24.3461C2.55239 24.182 2.47498 23.9804 2.42498 23.7413C2.37498 23.5022 2.34998 23.2551 2.34998 23C2.34998 22.7449 2.37498 22.4978 2.42498 22.2587C2.47498 22.0196 2.55239 21.818 2.65723 21.6539C4.71906 17.5513 7.64164 14.25 11.425 11.75C15.2083 9.25 19.4 8 24 8C28.6 8 32.7916 9.25 36.575 11.75C40.3583 14.25 43.2809 17.5513 45.3427 21.6539C45.4476 21.818 45.525 22.0196 45.575 22.2587C45.625 22.4978 45.65 22.7449 45.65 23C45.65 23.2551 45.625 23.5022 45.575 23.7413C45.525 23.9804 45.4476 24.182 45.3427 24.3461C43.2809 28.4487 40.3583 31.75 36.575 34.25C32.7916 36.75 28.6 38 24 38Z" fill="#1C1B1F"/>
</g>
</svg>
