<svg width="20px" height="20px" viewBox="0 0 48 48" fill="none" xmlns="http://www.w3.org/2000/svg">
<path d="M22.8 36C24.888 36 26.856 35.22 28.512 33.9L34.368 41.22L37.776 36.96L31.92 29.67C32.976 27.57 33.6 25.14 33.6 22.5C33.6 15 28.8 9 22.8 9C16.8 9 12 15 12 22.5C12 30 16.8 36 22.8 36ZM22.8 15C26.112 15 28.8 18.36 28.8 22.5C28.8 26.64 26.112 30 22.8 30C19.488 30 16.8 26.64 16.8 22.5C16.8 18.36 19.488 15 22.8 15ZM43.2 0H4.8C2.16 0 0 2.7 0 6V42C0 45.3 2.16 48 4.8 48H43.2C45.84 48 48 45.3 48 42V6C48 2.7 45.84 0 43.2 0ZM43.2 42H4.8V6H43.2V42Z" fill="black"/>
</svg>
