<svg width="18" height="10" viewBox="0 0 18 10" fill="none" xmlns="http://www.w3.org/2000/svg">
<path d="M9.04293 0.0448652C9.20133 0.0448652 9.36187 0.0742394 9.52456 0.132989C9.68727 0.191767 9.8414 0.293795 9.98695 0.439073L17.3242 7.76282C17.5018 7.94015 17.5891 8.13513 17.5859 8.34774C17.5827 8.56035 17.4922 8.75533 17.3145 8.9327C17.1368 9.11003 16.9399 9.1987 16.7237 9.1987C16.5075 9.1987 16.3105 9.11003 16.1329 8.9327L9.04293 1.85578L1.94336 8.94228C1.7657 9.11964 1.57037 9.20672 1.35736 9.20353C1.14436 9.20031 0.949018 9.11003 0.771331 8.9327C0.593644 8.75534 0.5048 8.55875 0.5048 8.34295C0.5048 8.12711 0.593644 7.93053 0.771331 7.7532L8.0989 0.439073C8.24445 0.293795 8.39322 0.191767 8.54522 0.132989C8.69719 0.0742395 8.8631 0.0448652 9.04293 0.0448652Z" fill="black"/>
</svg>
